# xmcd CD database file
#
# Track frame offsets:
#	150
#	1920
#	4320
#	5820
#	7470
#	9270
#	10920
#	13845
#	16470
#	19020
#	21570
#	24120
#	26670
#	29370
#	32070
#	34770
#	37470
#	40170
#	42870
#	45570
#	48270
#	50970
#	53670
#	56370
#	59070
#	65370
#	71670
#	74595
#	77521
#	80447
#	83372
#	86298
#	89224
#	92149
#	95075
#	98001
#	101011
#	104020
#	107030
#	109451
#	112377
#	118887
#	125396
#	127671
#	129946
#	132221
#	134421
#	136621
#	138896
#	141296
#	143696
#	146096
#	148496
#	150896
#	153296
#	155696
#	158096
#	160121
#	162146
#	164171
#	166946
#	173971
#	180996
#	183509
#	185571
#	188169
#	190232
#	192294
#	194357
#	196419
#	198482
#	200544
#	202719
#	204894
#	206957
#	209019
#	211110
#	213172
#	219573
#
# Disc length: 3010 seconds
#
# Revision: 0
# Processed by: cddbd v1.5.2PL0 Copyright (c) Steve Scherf et al.
# Submitted via: CDex 1.70beta3
#
DISCID=760bc04f
DTITLE=藤岡幹大 - バカテク・ギター 虎の巻
DYEAR=2017
DGENRE=Lesson
TTITLE0=基礎固めの章 EX-1
TTITLE1=基礎固めの章 EX-2
TTITLE2=基礎固めの章 EX-3
TTITLE3=基礎固めの章 EX-4
TTITLE4=基礎固めの章 EX-5
TTITLE5=基礎固めの章 EX-6
TTITLE6=基礎固めの章 EX-7
TTITLE7=基礎固めの章 EX-8
TTITLE8=ファンク・フュージョンの章 EX-1
TTITLE9=ファンク・フュージョンの章 EX-2
TTITLE10=ファンク・フュージョンの章 EX-3
TTITLE11=ファンク・フュージョンの章 EX-4
TTITLE12=ファンク・フュージョンの章 EX-5
TTITLE13=ファンク・フュージョンの章 EX-6
TTITLE14=ファンク・フュージョンの章 EX-7
TTITLE15=ファンク・フュージョンの章 EX-8
TTITLE16=ファンク・フュージョンの章 EX-9
TTITLE17=ファンク・フュージョンの章 EX-10
TTITLE18=ファンク・フュージョンの章 EX-11
TTITLE19=ファンク・フュージョンの章 EX-12
TTITLE20=ファンク・フュージョンの章 EX-13
TTITLE21=ファンク・フュージョンの章 EX-14
TTITLE22=ファンク・フュージョンの章 EX-15
TTITLE23=ファンク・フュージョンの章 EX-16
TTITLE24=ファンク・フュージョンの章 EX-A①
TTITLE25=ファンク・フュージョンの章 EX-A②
TTITLE26=メタルの章 EX-1
TTITLE27=メタルの章 EX-2
TTITLE28=メタルの章 EX-3
TTITLE29=メタルの章 EX-4
TTITLE30=メタルの章 EX-5
TTITLE31=メタルの章 EX-6
TTITLE32=メタルの章 EX-7
TTITLE33=メタルの章 EX-8
TTITLE34=メタルの章 EX-9
TTITLE35=メタルの章 EX-10
TTITLE36=メタルの章 EX-11
TTITLE37=メタルの章 EX-12
TTITLE38=メタルの章 EX-13
TTITLE39=メタルの章 EX-14
TTITLE40=メタルの章 EX-B①
TTITLE41=メタルの章 EX-B②
TTITLE42=変拍子の章 EX-1
TTITLE43=変拍子の章 EX-2
TTITLE44=変拍子の章 EX-3
TTITLE45=変拍子の章 EX-4
TTITLE46=変拍子の章 EX-5
TTITLE47=変拍子の章 EX-6
TTITLE48=変拍子の章 EX-7
TTITLE49=変拍子の章 EX-8
TTITLE50=変拍子の章 EX-9
TTITLE51=変拍子の章 EX-10
TTITLE52=変拍子の章 EX-11
TTITLE53=変拍子の章 EX-12
TTITLE54=変拍子の章 EX-13
TTITLE55=変拍子の章 EX-14
TTITLE56=変拍子の章 EX-15
TTITLE57=変拍子の章 EX-16
TTITLE58=変拍子の章 EX-17
TTITLE59=変拍子の章 EX-18
TTITLE60=変拍子の章 EX-C①
TTITLE61=変拍子の章 EX-C②
TTITLE62=ジャズの章 EX-1
TTITLE63=ジャズの章 EX-2
TTITLE64=ジャズの章 EX-3
TTITLE65=ジャズの章 EX-4
TTITLE66=ジャズの章 EX-5
TTITLE67=ジャズの章 EX-6
TTITLE68=ジャズの章 EX-7
TTITLE69=ジャズの章 EX-8
TTITLE70=ジャズの章 EX-9
TTITLE71=ジャズの章 EX-10
TTITLE72=ジャズの章 EX-11
TTITLE73=ジャズの章 EX-12
TTITLE74=ジャズの章 EX-13
TTITLE75=ジャズの章 EX-14
TTITLE76=ジャズの章 EX-15
TTITLE77=ジャズの章 EX-D①
TTITLE78=ジャズの章 EX-D②
EXTD=YEAR: 2017
EXTT0=
EXTT1=
EXTT2=
EXTT3=
EXTT4=
EXTT5=
EXTT6=
EXTT7=
EXTT8=
EXTT9=
EXTT10=
EXTT11=
EXTT12=
EXTT13=
EXTT14=
EXTT15=
EXTT16=
EXTT17=
EXTT18=
EXTT19=
EXTT20=
EXTT21=
EXTT22=
EXTT23=
EXTT24=
EXTT25=
EXTT26=
EXTT27=
EXTT28=
EXTT29=
EXTT30=
EXTT31=
EXTT32=
EXTT33=
EXTT34=
EXTT35=
EXTT36=
EXTT37=
EXTT38=
EXTT39=
EXTT40=
EXTT41=
EXTT42=
EXTT43=
EXTT44=
EXTT45=
EXTT46=
EXTT47=
EXTT48=
EXTT49=
EXTT50=
EXTT51=
EXTT52=
EXTT53=
EXTT54=
EXTT55=
EXTT56=
EXTT57=
EXTT58=
EXTT59=
EXTT60=
EXTT61=
EXTT62=
EXTT63=
EXTT64=
EXTT65=
EXTT66=
EXTT67=
EXTT68=
EXTT69=
EXTT70=
EXTT71=
EXTT72=
EXTT73=
EXTT74=
EXTT75=
EXTT76=
EXTT77=
EXTT78=
PLAYORDER=
